<?xml version="1.0" encoding="utf-8"?>
<!-- Generator: Adobe Illustrator 17.1.0, SVG Export Plug-In . SVG Version: 6.00 Build 0)  -->
<!DOCTYPE svg PUBLIC "-//W3C//DTD SVG 1.1//EN" "http://www.w3.org/Graphics/SVG/1.1/DTD/svg11.dtd">
<svg version="1.1" id="Layer_1" xmlns="http://www.w3.org/2000/svg" xmlns:xlink="http://www.w3.org/1999/xlink" x="0px" y="0px"
	 viewBox="0 0 100 100" enable-background="new 0 0 100 100" xml:space="preserve">
<g>
	<path fill="#FFFFFF" d="M59.5,74.8c0,0.2-0.1,0.4-0.2,0.5L42.1,92.5c-0.3,0.3-0.8,0.3-1.1,0s-0.3-0.8,0-1.1l16.6-16.6L41.1,58.2
		c-0.3-0.3-0.3-0.8,0-1.1s0.8-0.3,1.1,0l17.1,17.1C59.4,74.4,59.5,74.6,59.5,74.8z"/>
</g>
<g>
	<g enable-background="new    ">
		<path fill="#FFFFFF" d="M31.7,13.6h3.6c0.5,0,1.3,0.1,1.9,0.5c1.1,0.6,1.8,1.8,1.8,3.5c0,2.1-1.2,3.3-2.2,3.8v0
			c0,0,0.2,0.3,0.3,0.6l2.4,5.6h-1.5l-2.4-5.9H33v5.9h-1.3V13.6z M35.2,20.5c1.2,0,2.4-1.1,2.4-2.9c0-1.1-0.4-1.9-1-2.3
			c-0.4-0.3-1-0.4-1.4-0.4H33v5.7H35.2z"/>
		<path fill="#FFFFFF" d="M41.4,13.6h6.2v1.2h-4.9v5.1h4v1.2h-4v5.3h5.1v1.2h-6.5V13.6z"/>
		<path fill="#FFFFFF" d="M52.7,13.6h1.4l3.9,14h-1.4l-1.2-4.5h-4.1l-1.2,4.5h-1.4L52.7,13.6z M55.2,21.9l-1.4-5.1
			c-0.2-0.7-0.4-1.8-0.4-1.8h-0.1c0,0-0.2,1.2-0.4,1.8l-1.4,5.1H55.2z"/>
		<path fill="#FFFFFF" d="M59.9,13.6h3.6c3.3,0,5.5,2.6,5.5,7c0,4.5-2.2,7-5.5,7h-3.6V13.6z M63.4,26.3c2.5,0,4.2-2,4.2-5.8
			c0-3.7-1.7-5.8-4.2-5.8h-2.1v11.6H63.4z"/>
	</g>
	<g enable-background="new    ">
		<path fill="#FFFFFF" d="M29.9,33.5h1.4l2.6,8c0.2,0.7,0.5,1.9,0.5,1.9h0c0,0,0.3-1.1,0.5-1.9l2.6-8H39l0.9,14h-1.3L38,37.7
			c0-0.8,0-1.9,0-1.9h0c0,0-0.3,1.4-0.5,2.1l-2.3,7h-1.3l-2.3-7c-0.2-0.7-0.5-2.1-0.5-2.1h0c0,0,0,1.2,0,2l-0.6,9.8H29L29.9,33.5z"
			/>
		<path fill="#FFFFFF" d="M47.4,33.2c3.2,0,5.5,2.7,5.5,7.1c0,4.5-2.4,7.3-5.5,7.3s-5.5-2.8-5.5-7.3C41.9,36,44.2,33.2,47.4,33.2z
			 M47.4,46.4c2.3,0,4.1-2.3,4.1-6c0-3.7-1.8-5.9-4.1-5.9c-2.4,0-4.2,2.2-4.2,5.9C43.2,44.2,45,46.4,47.4,46.4z"/>
		<path fill="#FFFFFF" d="M55.3,33.5h3.6c0.5,0,1.3,0.1,1.9,0.5c1.1,0.6,1.8,1.8,1.8,3.5c0,2.1-1.2,3.3-2.2,3.8v0
			c0,0,0.2,0.3,0.3,0.6l2.4,5.6h-1.5l-2.4-5.9h-2.5v5.9h-1.3V33.5z M58.8,40.4c1.2,0,2.4-1.1,2.4-2.9c0-1.1-0.4-1.9-1-2.3
			c-0.4-0.3-1-0.4-1.4-0.4h-2.1v5.7H58.8z"/>
		<path fill="#FFFFFF" d="M65,33.5h6.2v1.2h-4.9v5.1h4V41h-4v5.3h5.1v1.2H65V33.5z"/>
	</g>
</g>
</svg>
