<?xml version="1.0" encoding="utf-8"?>
<!-- Generator: Adobe Illustrator 17.1.0, SVG Export Plug-In . SVG Version: 6.00 Build 0)  -->
<!DOCTYPE svg PUBLIC "-//W3C//DTD SVG 1.1//EN" "http://www.w3.org/Graphics/SVG/1.1/DTD/svg11.dtd">
<svg version="1.1" id="Layer_1" xmlns="http://www.w3.org/2000/svg" xmlns:xlink="http://www.w3.org/1999/xlink" x="0px" y="0px"
	 viewBox="0 0 50 50" enable-background="new 0 0 50 50" xml:space="preserve">
<path d="M26.1,25l11.8-11.8c0.3-0.3,0.3-0.8,0-1.1s-0.8-0.3-1.1,0L25,23.9L13.2,12.1c-0.3-0.3-0.8-0.3-1.1,0s-0.3,0.8,0,1.1L23.9,25
	L12.1,36.8c-0.3,0.3-0.3,0.8,0,1.1s0.8,0.3,1.1,0L25,26.1l11.8,11.8c0.1,0.1,0.3,0.2,0.5,0.2s0.4-0.1,0.5-0.2c0.3-0.3,0.3-0.8,0-1.1
	L26.1,25z"/>
</svg>
