<?xml version="1.0" encoding="utf-8"?>
<!-- Generator: Adobe Illustrator 17.1.0, SVG Export Plug-In . SVG Version: 6.00 Build 0)  -->
<!DOCTYPE svg PUBLIC "-//W3C//DTD SVG 1.1//EN" "http://www.w3.org/Graphics/SVG/1.1/DTD/svg11.dtd">
<svg version="1.1" id="Layer_1" xmlns="http://www.w3.org/2000/svg" xmlns:xlink="http://www.w3.org/1999/xlink" x="0px" y="0px"
	 viewBox="0 0 100 100" enable-background="new 0 0 100 100" xml:space="preserve">
<g>
	<path fill="#FFFFFF" d="M50,84c-0.2,0-0.3-0.1-0.4-0.2L32.5,66.7c-0.2-0.2-0.2-0.6,0-0.8c0.2-0.2,0.6-0.2,0.8,0L50,82.5l16.7-16.7
		c0.2-0.2,0.6-0.2,0.8,0s0.2,0.6,0,0.8L50.5,83.8C50.3,83.9,50.2,84,50,84z"/>
	<g enable-background="new    ">
		<path fill="#FFFFFF" d="M34.7,19.6H36v12.8h4.9v1.2h-6.2V19.6z"/>
		<path fill="#FFFFFF" d="M42.7,19.6H49v1.2h-4.9v5.1h4v1.2h-4v5.3h5.1v1.2h-6.5V19.6z"/>
		<path fill="#FFFFFF" d="M51.4,19.6h6.2v1.2h-4.9v5.1h4v1.2h-4v5.3h5.1v1.2h-6.5V19.6z"/>
		<path fill="#FFFFFF" d="M59.8,31.4c0.7,0.7,1.6,1.2,2.6,1.2c1.4,0,2.3-0.9,2.3-2.4c0-3.4-5.3-3-5.3-7.1c0-2,1.4-3.7,3.8-3.7
			c1,0,2,0.3,2.8,0.9l-0.5,1.2c-0.5-0.4-1.5-0.8-2.3-0.8c-1.6,0-2.4,1.1-2.4,2.4c0,3.2,5.3,2.8,5.3,7c0,2.1-1.3,3.8-3.7,3.8
			c-1.2,0-2.4-0.4-3.3-1.3L59.8,31.4z"/>
	</g>
	<g enable-background="new    ">
		<path fill="#FFFFFF" d="M21.3,39.5h1.4l2.8,10.6c0.2,0.7,0.4,1.8,0.4,1.8h0c0,0,0.2-1.1,0.4-1.8l2.9-10.6h1.4l-3.9,14h-1.4
			L21.3,39.5z"/>
		<path fill="#FFFFFF" d="M32.4,39.5h6.2v1.2h-4.9v5.1h4V47h-4v5.3h5.1v1.2h-6.5V39.5z"/>
		<path fill="#FFFFFF" d="M41,39.5h3.6c0.5,0,1.3,0.1,1.9,0.5c1.1,0.6,1.8,1.8,1.8,3.5c0,2.1-1.2,3.3-2.2,3.8v0c0,0,0.2,0.3,0.3,0.6
			l2.4,5.6h-1.5l-2.4-5.9h-2.5v5.9H41V39.5z M44.5,46.4c1.2,0,2.4-1.1,2.4-2.9c0-1.1-0.4-1.9-1-2.3c-0.4-0.3-1-0.4-1.4-0.4h-2.1v5.7
			H44.5z"/>
		<path fill="#FFFFFF" d="M50.7,39.5h3.6c3.3,0,5.5,2.6,5.5,7c0,4.5-2.2,7-5.5,7h-3.6V39.5z M54.2,52.2c2.5,0,4.2-2,4.2-5.8
			c0-3.7-1.7-5.8-4.2-5.8h-2.1v11.6H54.2z"/>
		<path fill="#FFFFFF" d="M62.2,39.5h6.2v1.2h-4.9v5.1h4V47h-4v5.3h5.1v1.2h-6.5V39.5z"/>
		<path fill="#FFFFFF" d="M70.8,39.5h3.6c0.5,0,1.3,0.1,1.9,0.5c1.1,0.6,1.8,1.8,1.8,3.5c0,2.1-1.2,3.3-2.2,3.8v0
			c0,0,0.2,0.3,0.3,0.6l2.4,5.6h-1.5l-2.4-5.9h-2.5v5.9h-1.3V39.5z M74.3,46.4c1.2,0,2.4-1.1,2.4-2.9c0-1.1-0.4-1.9-1-2.3
			c-0.4-0.3-1-0.4-1.4-0.4h-2.1v5.7H74.3z"/>
	</g>
</g>
<g>
	<path d="M50,84.1c-0.2,0-0.4-0.1-0.5-0.2L32.4,66.8c-0.3-0.3-0.3-0.8,0-1.1s0.8-0.3,1.1,0L50,82.3l16.6-16.6c0.3-0.3,0.8-0.3,1.1,0
		s0.3,0.8,0,1.1L50.6,83.9C50.4,84,50.2,84.1,50,84.1z"/>
	<g enable-background="new    ">
		<path d="M34.7,19.6H36v12.8h4.9v1.2h-6.2V19.6z"/>
		<path d="M42.7,19.6H49v1.2h-4.9v5.1h4v1.2h-4v5.3h5.1v1.2h-6.5V19.6z"/>
		<path d="M51.4,19.6h6.2v1.2h-4.9v5.1h4v1.2h-4v5.3h5.1v1.2h-6.5V19.6z"/>
		<path d="M59.8,31.4c0.7,0.7,1.6,1.2,2.6,1.2c1.4,0,2.3-0.9,2.3-2.4c0-3.4-5.3-3-5.3-7.1c0-2,1.4-3.7,3.8-3.7c1,0,2,0.3,2.8,0.9
			l-0.5,1.2c-0.5-0.4-1.5-0.8-2.3-0.8c-1.6,0-2.4,1.1-2.4,2.4c0,3.2,5.3,2.8,5.3,7c0,2.1-1.3,3.8-3.7,3.8c-1.2,0-2.4-0.4-3.3-1.3
			L59.8,31.4z"/>
	</g>
	<g enable-background="new    ">
		<path d="M21.3,39.5h1.4l2.8,10.6c0.2,0.7,0.4,1.8,0.4,1.8h0c0,0,0.2-1.1,0.4-1.8l2.9-10.6h1.4l-3.9,14h-1.4L21.3,39.5z"/>
		<path d="M32.4,39.5h6.2v1.2h-4.9v5.1h4V47h-4v5.3h5.1v1.2h-6.5V39.5z"/>
		<path d="M41,39.5h3.6c0.5,0,1.3,0.1,1.9,0.5c1.1,0.6,1.8,1.8,1.8,3.5c0,2.1-1.2,3.3-2.2,3.8v0c0,0,0.2,0.3,0.3,0.6l2.4,5.6h-1.5
			l-2.4-5.9h-2.5v5.9H41V39.5z M44.5,46.4c1.2,0,2.4-1.1,2.4-2.9c0-1.1-0.4-1.9-1-2.3c-0.4-0.3-1-0.4-1.4-0.4h-2.1v5.7H44.5z"/>
		<path d="M50.7,39.5h3.6c3.3,0,5.5,2.6,5.5,7c0,4.5-2.2,7-5.5,7h-3.6V39.5z M54.2,52.2c2.5,0,4.2-2,4.2-5.8c0-3.7-1.7-5.8-4.2-5.8
			h-2.1v11.6H54.2z"/>
		<path d="M62.2,39.5h6.2v1.2h-4.9v5.1h4V47h-4v5.3h5.1v1.2h-6.5V39.5z"/>
		<path d="M70.8,39.5h3.6c0.5,0,1.3,0.1,1.9,0.5c1.1,0.6,1.8,1.8,1.8,3.5c0,2.1-1.2,3.3-2.2,3.8v0c0,0,0.2,0.3,0.3,0.6l2.4,5.6h-1.5
			l-2.4-5.9h-2.5v5.9h-1.3V39.5z M74.3,46.4c1.2,0,2.4-1.1,2.4-2.9c0-1.1-0.4-1.9-1-2.3c-0.4-0.3-1-0.4-1.4-0.4h-2.1v5.7H74.3z"/>
	</g>
</g>
</svg>
