<?xml version="1.0" encoding="utf-8"?>
<!-- Generator: Adobe Illustrator 18.0.0, SVG Export Plug-In . SVG Version: 6.00 Build 0)  -->
<!DOCTYPE svg PUBLIC "-//W3C//DTD SVG 1.1//EN" "http://www.w3.org/Graphics/SVG/1.1/DTD/svg11.dtd">
<svg version="1.1" id="Layer_1" xmlns="http://www.w3.org/2000/svg" xmlns:xlink="http://www.w3.org/1999/xlink" x="0px" y="0px"
	 viewBox="0 0 100 100" enable-background="new 0 0 100 100" xml:space="preserve">
<g>
	<path d="M59.5,71.8c0,0.2-0.1,0.4-0.2,0.5L42.1,89.5c-0.3,0.3-0.8,0.3-1.1,0s-0.3-0.8,0-1.1l16.6-16.6L41.1,55.2
		c-0.3-0.3-0.3-0.8,0-1.1s0.8-0.3,1.1,0l17.1,17.1C59.4,71.4,59.5,71.6,59.5,71.8z"/>
	<g enable-background="new    ">
		<path d="M34.8,12.6h1.3v12.8H41v1.2h-6.2V12.6z"/>
		<path d="M42.8,12.6h6.2v1.2h-4.9v5.1h4v1.2h-4v5.3h5.1v1.2h-6.5V12.6z"/>
		<path d="M51.5,12.6h6.2v1.2h-4.9v5.1h4v1.2h-4v5.3h5.1v1.2h-6.5V12.6z"/>
		<path d="M59.9,24.4c0.7,0.7,1.6,1.2,2.6,1.2c1.4,0,2.3-0.9,2.3-2.4c0-3.4-5.3-3-5.3-7.1c0-2,1.4-3.7,3.8-3.7c1,0,2,0.3,2.8,0.9
			l-0.5,1.2C65,14,64,13.6,63.3,13.6c-1.6,0-2.4,1.1-2.4,2.4c0,3.2,5.3,2.8,5.3,7c0,2.1-1.3,3.8-3.7,3.8c-1.2,0-2.4-0.4-3.3-1.3
			L59.9,24.4z"/>
	</g>
	<g enable-background="new    ">
		<path d="M21.4,32.5h1.4l2.8,10.6c0.2,0.7,0.4,1.8,0.4,1.8h0c0,0,0.2-1.1,0.4-1.8l2.9-10.6h1.4l-3.9,14h-1.4L21.4,32.5z"/>
		<path d="M32.5,32.5h6.2v1.2h-4.9v5.1h4V40h-4v5.3H39v1.2h-6.5V32.5z"/>
		<path d="M41.1,32.5h3.6c0.5,0,1.3,0.1,1.9,0.5c1.1,0.6,1.8,1.8,1.8,3.5c0,2.1-1.2,3.3-2.2,3.8v0c0,0,0.2,0.3,0.3,0.6l2.4,5.6h-1.5
			L45,40.6h-2.5v5.9h-1.3V32.5z M44.6,39.4c1.2,0,2.4-1.1,2.4-2.9c0-1.1-0.4-1.9-1-2.3c-0.4-0.3-1-0.4-1.4-0.4h-2.1v5.7H44.6z"/>
		<path d="M50.8,32.5h3.6c3.3,0,5.5,2.6,5.5,7c0,4.5-2.2,7-5.5,7h-3.6V32.5z M54.3,45.2c2.5,0,4.2-2,4.2-5.8c0-3.7-1.7-5.8-4.2-5.8
			h-2.1v11.6H54.3z"/>
		<path d="M62.3,32.5h6.2v1.2h-4.9v5.1h4V40h-4v5.3h5.1v1.2h-6.5V32.5z"/>
		<path d="M70.9,32.5h3.6c0.5,0,1.3,0.1,1.9,0.5c1.1,0.6,1.8,1.8,1.8,3.5c0,2.1-1.2,3.3-2.2,3.8v0c0,0,0.2,0.3,0.3,0.6l2.4,5.6h-1.5
			l-2.4-5.9h-2.5v5.9h-1.3V32.5z M74.4,39.4c1.2,0,2.4-1.1,2.4-2.9c0-1.1-0.4-1.9-1-2.3c-0.4-0.3-1-0.4-1.4-0.4h-2.1v5.7H74.4z"/>
	</g>
</g>
</svg>
