<?xml version="1.0" encoding="utf-8"?>
<!-- Generator: Adobe Illustrator 17.1.0, SVG Export Plug-In . SVG Version: 6.00 Build 0)  -->
<!DOCTYPE svg PUBLIC "-//W3C//DTD SVG 1.1//EN" "http://www.w3.org/Graphics/SVG/1.1/DTD/svg11.dtd">
<svg version="1.1" id="Layer_1" xmlns="http://www.w3.org/2000/svg" xmlns:xlink="http://www.w3.org/1999/xlink" x="0px" y="0px"
	 viewBox="0 0 100 100" enable-background="new 0 0 100 100" xml:space="preserve">
<g>
	<polygon opacity="0.15" fill="#FFFFFF" points="36.5,47.8 42.1,43.1 45.9,46.5 54.8,37.3 63.5,45.5 63.5,52 36.5,52 	"/>
	<circle fill="#FFFFFF" cx="42.1" cy="38.3" r="2.4"/>
	<g>
		<path fill="#FFFFFF" d="M75,59.1h-1.2V25.3H75c0.4,0,0.8-0.3,0.8-0.8s-0.3-0.8-0.8-0.8H50.8v-1c0-0.4-0.3-0.8-0.8-0.8
			s-0.8,0.3-0.8,0.8v1H25c-0.4,0-0.8,0.3-0.8,0.8s0.3,0.8,0.8,0.8h1.2v33.8H25c-0.4,0-0.8,0.3-0.8,0.8s0.3,0.8,0.8,0.8h23.5
			L32.4,76.7c-0.3,0.3-0.3,0.8,0,1.1s0.8,0.3,1.1,0l15.8-15.8v10.3c0,0.4,0.3,0.8,0.8,0.8s0.8-0.3,0.8-0.8V61.9l15.8,15.8
			c0.1,0.1,0.3,0.2,0.5,0.2s0.4-0.1,0.5-0.2c0.3-0.3,0.3-0.8,0-1.1L51.6,60.6H75c0.4,0,0.8-0.3,0.8-0.8S75.5,59.1,75,59.1z
			 M27.7,25.3h44.7v33.8H27.7V25.3z"/>
		<path fill="#FFFFFF" d="M64.2,52V32.5c0-0.4-0.3-0.8-0.8-0.8H36.5c-0.4,0-0.8,0.3-0.8,0.8V52c0,0.4,0.3,0.8,0.8,0.8h26.9
			C63.9,52.7,64.2,52.4,64.2,52z M62.7,33.2v10.6l-7.4-7c-0.3-0.3-0.8-0.3-1.1,0l-8.4,8.7l-3.2-3c-0.3-0.3-0.7-0.3-1,0l-4.3,3.7v-13
			H62.7z M37.3,51.2v-3l4.8-4.1l3.3,3c0.3,0.3,0.8,0.3,1,0l8.4-8.7l7.9,7.5v5.3H37.3z"/>
	</g>
</g>
</svg>
