<?xml version="1.0" encoding="utf-8"?>
<!-- Generator: Adobe Illustrator 17.1.0, SVG Export Plug-In . SVG Version: 6.00 Build 0)  -->
<!DOCTYPE svg PUBLIC "-//W3C//DTD SVG 1.1//EN" "http://www.w3.org/Graphics/SVG/1.1/DTD/svg11.dtd">
<svg version="1.1" id="Layer_1" xmlns="http://www.w3.org/2000/svg" xmlns:xlink="http://www.w3.org/1999/xlink" x="0px" y="0px"
	 viewBox="0 0 100 100" enable-background="new 0 0 100 100" xml:space="preserve">
<g>
	<circle opacity="0.15" fill="#FFFFFF" cx="50" cy="42.2" r="10.6"/>
	<g>
		<path fill="#FFFFFF" d="M75,59.1h-1.2V25.3H75c0.4,0,0.8-0.3,0.8-0.8s-0.3-0.8-0.8-0.8H50.8v-1c0-0.4-0.3-0.8-0.8-0.8
			s-0.8,0.3-0.8,0.8v1H25c-0.4,0-0.8,0.3-0.8,0.8s0.3,0.8,0.8,0.8h1.2v33.8H25c-0.4,0-0.8,0.3-0.8,0.8s0.3,0.8,0.8,0.8h23.5
			L32.4,76.7c-0.3,0.3-0.3,0.8,0,1.1s0.8,0.3,1.1,0l15.8-15.8v10.3c0,0.4,0.3,0.8,0.8,0.8s0.8-0.3,0.8-0.8V61.9l15.8,15.8
			c0.1,0.1,0.3,0.2,0.5,0.2s0.4-0.1,0.5-0.2c0.3-0.3,0.3-0.8,0-1.1L51.6,60.6H75c0.4,0,0.8-0.3,0.8-0.8S75.5,59.1,75,59.1z
			 M27.7,25.3h44.7v33.8H27.7V25.3z"/>
		<path fill="#FFFFFF" d="M61.4,42.2c0-6.3-5.1-11.4-11.4-11.4c-6.3,0-11.4,5.1-11.4,11.4S43.7,53.6,50,53.6
			C56.3,53.6,61.4,48.5,61.4,42.2z M40.1,42.2c0-5.4,4.4-9.9,9.9-9.9s9.9,4.4,9.9,9.9c0,5.4-4.4,9.9-9.9,9.9S40.1,47.7,40.1,42.2z"
			/>
	</g>
	<polygon fill="#FFFFFF" points="47.9,46.2 47.9,38.3 53.8,42.2 	"/>
</g>
</svg>
